<?xml version="1.0" encoding="utf-8"?>
<!-- Generator: Adobe Illustrator 16.0.0, SVG Export Plug-In . SVG Version: 6.00 Build 0)  -->
<!DOCTYPE svg [
	<!ENTITY ns_extend "http://ns.adobe.com/Extensibility/1.0/">
	<!ENTITY ns_ai "http://ns.adobe.com/AdobeIllustrator/10.0/">
	<!ENTITY ns_graphs "http://ns.adobe.com/Graphs/1.0/">
	<!ENTITY ns_vars "http://ns.adobe.com/Variables/1.0/">
	<!ENTITY ns_imrep "http://ns.adobe.com/ImageReplacement/1.0/">
	<!ENTITY ns_sfw "http://ns.adobe.com/SaveForWeb/1.0/">
	<!ENTITY ns_custom "http://ns.adobe.com/GenericCustomNamespace/1.0/">
	<!ENTITY ns_adobe_xpath "http://ns.adobe.com/XPath/1.0/">
]>
<svg version="1.2" baseProfile="tiny" id="Layer_1" xmlns:x="&ns_extend;" xmlns:i="&ns_ai;" xmlns:graph="&ns_graphs;"
	 xmlns="http://www.w3.org/2000/svg" xmlns:xlink="http://www.w3.org/1999/xlink" x="0px" y="0px" width="900px" height="682px"
	 viewBox="0 0 900 682" xml:space="preserve">
<metadata>
	<sfw  xmlns="&ns_sfw;">
		<slices></slices>
		<sliceSourceBounds  width="579.601" height="127.307" x="183.75" y="-434.311" bottomLeftOrigin="true"></sliceSourceBounds>
		<optimizationSettings>
			<targetSettings  fileFormat="JPEGFormat" targetSettingsID="0">
				
					<JPEGFormat  quality="60" embedICCProfile="false" optimized="true" noMatteColor="false" blurAmount="0" progressive="true" matteColor="#FFFFFF">
					</JPEGFormat>
			</targetSettings>
		</optimizationSettings>
	</sfw>
</metadata>
<circle fill-rule="evenodd" fill="#939598" cx="247.823" cy="370.657" r="63.654"/>
<path fill-rule="evenodd" fill="#FFFFFF" d="M310.903,370.304c-4.962,0-9.924,0.246-14.84-0.08
	c-3.713-0.246-6.052,0.739-7.764,3.674c-1.343,2.305-3.235,4.356-5.105,6.81c-4.388-8.126-8.538-15.808-12.901-23.889
	c-4.57,7.973-8.943,15.601-13.535,23.607c-1.524-2.824-2.786-5.293-4.188-7.697c-0.719-1.233-0.689-2.109,0.427-3.229
	c4.758-4.774,9.381-9.654,14.063-14.488c2.597-2.682,5.213-5.348,8.147-8.354c0.26,1.885,0.459,3.32,0.732,5.307
	c2.884-5.548,5.514-10.612,8.146-15.677h-1.393c-4.876,2.958-9.753,5.915-15.067,9.137h5.71
	c-7.686,7.937-15.133,15.628-22.735,23.478c-2.232-4.133-4.278-7.918-6.479-11.991c-5.008,7.994-9.783,15.611-14.78,23.588
	c-4.119-7.987-8.039-15.59-12.109-23.483c-3.027,4.08-5.865,7.817-8.583,11.622c-0.832,1.164-1.73,1.688-3.344,1.653
	c-4.636-0.1-9.277-0.038-13.918-0.038c-2.371,0-4.74,0-7.039,0c-0.653,1.754,0.183,2.028,1.628,2.017
	c4.948-0.038,9.953-0.42,14.833,0.091c5.923,0.62,9.815-1.012,12.205-5.876c0.888-1.808,2.436-3.36,3.865-5.273
	c4.183,8.114,8.145,15.801,12.265,23.794c4.998-7.976,9.82-15.675,14.83-23.671c1.458,2.728,2.677,5.219,4.116,7.605
	c0.736,1.219,0.622,2.004-0.404,3.054c-9.175,9.394-18.292,18.832-27.418,28.264c0.519,0.516,1.021,1.041,1.502,1.578
	c9.391-9.699,18.784-19.403,28.251-29.185c2.249,4.18,4.356,8.094,6.668,12.39c4.587-8.005,8.959-15.633,13.537-23.622
	c4.309,7.964,8.401,15.526,12.645,23.373c2.942-3.883,5.665-7.369,8.245-10.937c0.86-1.189,1.842-1.587,3.398-1.561
	c4.947,0.08,9.898,0,14.846,0.042C311.039,372.351,311.663,371.88,310.903,370.304z"/>
<g>
	<path fill="#414042" d="M381.273,344.038c-1.725-2.4-3.826-4.426-6.226-6.001c-3.601-2.476-7.951-3.9-12.902-3.9
		c-12.152,0-22.729,9.301-22.729,23.179c0,14.102,10.652,23.403,22.804,23.403c5.851,0,11.027-2.025,14.853-5.025
		c3.901-3.076,6.601-7.276,7.501-11.627H356.97v-5.102h34.806c-0.075,3.226-0.825,7.276-2.476,10.728
		c-4.801,10.427-15.903,16.502-27.08,16.502c-16.203,0-29.03-12.452-29.03-28.879c0-16.653,13.052-28.655,29.105-28.655
		c11.252,0,21.678,6.301,26.029,15.378H381.273z"/>
	<path fill="#414042" d="M399.647,344.788h5.251c0,2.25,0,4.501-0.075,7.201c2.326-5.251,7.801-8.477,15.002-8.326
		c12.527,0.149,16.953,8.701,16.953,18.527v22.954h-5.476v-21.828c0-8.702-3.901-14.628-12.977-14.478
		c-8.327,0.075-13.127,5.101-13.127,13.502v22.804h-5.551V344.788z"/>
	<path fill="#414042" d="M488.007,385.145h-5.551v-8.326c-3.15,6.076-9.302,9.451-16.503,9.451
		c-13.127,0-20.928-10.201-20.928-21.304c0-11.852,8.626-21.303,20.928-21.303c8.627,0,14.553,5.025,16.503,9.602v-8.477h5.551
		V385.145z M450.501,365.041c0.075,7.276,5.101,16.053,16.202,16.053c7.127,0,12.378-4.126,14.553-9.826
		c0.9-1.95,1.351-4.201,1.351-6.376c0.075-2.251-0.375-4.501-1.275-6.451c-2.25-5.551-7.651-9.677-14.777-9.677
		c-9.302,0-16.053,7.201-16.053,16.202V365.041z"/>
	<path fill="#414042" d="M498.805,344.788h5.25v6.601c2.926-6.001,8.177-7.576,12.902-7.726v5.476h-0.525
		c-7.801,0-12.151,4.876-12.151,14.027v21.979h-5.476V344.788z"/>
	<path fill="#414042" d="M522.957,329.636h5.551v55.509h-5.551V329.636z"/>
	<path fill="#414042" d="M550.033,384.395l-15.602-39.606h5.926l12.677,32.63l13.052-32.63h6.076l-23.028,55.659h-6.001
		L550.033,384.395z"/>
	<path fill="#939598" d="M644.844,344.038c-1.725-2.4-3.825-4.426-6.226-6.001c-3.601-2.476-7.951-3.9-12.902-3.9
		c-12.151,0-22.729,9.301-22.729,23.179c0,14.102,10.651,23.403,22.804,23.403c5.852,0,11.027-2.025,14.853-5.025
		c3.9-3.076,6.601-7.276,7.501-11.627H620.54v-5.102h34.806c-0.075,3.226-0.825,7.276-2.476,10.728
		c-4.801,10.427-15.902,16.502-27.079,16.502c-16.202,0-29.029-12.452-29.029-28.879c0-16.653,13.052-28.655,29.104-28.655
		c11.252,0,21.679,6.301,26.029,15.378H644.844z"/>
	<path fill="#939598" d="M663.219,344.788h5.25v6.601c2.926-6.001,8.177-7.576,12.902-7.726v5.476h-0.525
		c-7.801,0-12.151,4.876-12.151,14.027v21.979h-5.476V344.788z"/>
	<path fill="#939598" d="M686.995,366.541c0.301,10.127,8.927,15.003,15.753,14.928c6.226,0,11.252-3.075,13.877-8.326h5.776
		c-1.876,4.351-4.726,7.651-8.177,9.826c-3.375,2.176-7.351,3.301-11.477,3.301c-14.027,0-21.304-11.177-21.304-21.229
		c0-11.852,9.151-21.378,21.229-21.378c5.701,0,10.952,2.025,14.777,5.7c4.651,4.501,6.901,10.728,6.301,17.178H686.995z
		 M718.275,362.116c-0.375-7.052-7.201-13.953-15.527-13.728c-8.701,0-15.152,6.376-15.678,13.728H718.275z"/>
	<path fill="#939598" d="M741.15,384.395l-15.604-39.606h5.927l12.677,32.63l13.052-32.63h6.076l-23.028,55.659h-6.001
		L741.15,384.395z"/>
</g>
<g>
	<path fill="#414042" d="M349.888,423.189h-0.577l-1.942-3.748h-8.259l-1.942,3.748h-0.595l6.386-12.391h0.525L349.888,423.189z
		 M347.141,419.008l-3.919-7.574l-3.884,7.574H347.141z"/>
	<path fill="#414042" d="M376.011,417.505v5.685h-0.525v-5.591c0-0.589-0.114-1.131-0.34-1.627c-0.227-0.495-0.53-0.927-0.908-1.293
		s-0.817-0.65-1.318-0.852s-1.03-0.303-1.589-0.303c-0.559,0-1.085,0.102-1.58,0.303c-0.495,0.201-0.932,0.479-1.31,0.836
		c-0.378,0.356-0.678,0.777-0.899,1.263s-0.332,1.012-0.332,1.579v5.685h-0.525v-5.591c0-0.589-0.111-1.131-0.333-1.627
		c-0.222-0.495-0.525-0.927-0.91-1.293c-0.385-0.366-0.829-0.65-1.33-0.852s-1.032-0.303-1.592-0.303
		c-0.571,0-1.108,0.102-1.609,0.303c-0.502,0.201-0.939,0.478-1.313,0.828c-0.374,0.352-0.668,0.77-0.884,1.255
		s-0.323,1.012-0.323,1.58l-0.018,5.699h-0.525v-9.804h0.525v2.23c0.21-0.444,0.467-0.823,0.771-1.139
		c0.303-0.315,0.636-0.57,0.998-0.767c0.362-0.196,0.748-0.341,1.156-0.434s0.817-0.14,1.226-0.14c0.42,0,0.843,0.054,1.27,0.163
		c0.426,0.108,0.835,0.281,1.226,0.519s0.75,0.539,1.077,0.906c0.327,0.366,0.607,0.813,0.841,1.339
		c0.408-1.001,0.99-1.739,1.748-2.214c0.757-0.476,1.643-0.713,2.657-0.713c0.629,0,1.226,0.111,1.792,0.333
		s1.061,0.526,1.486,0.914c0.426,0.387,0.764,0.847,1.014,1.378C375.885,416.295,376.011,416.876,376.011,417.505z"/>
	<path fill="#414042" d="M379.527,423.189h-0.525v-9.401h-0.822v-0.402h1.347V423.189z M379.615,410.412
		c0,0.165-0.064,0.305-0.192,0.418s-0.286,0.17-0.472,0.17c-0.187,0-0.344-0.057-0.473-0.17s-0.192-0.253-0.192-0.418
		c0-0.176,0.064-0.32,0.192-0.434c0.128-0.114,0.286-0.171,0.473-0.171c0.186,0,0.344,0.057,0.472,0.171
		C379.551,410.092,379.615,410.236,379.615,410.412z"/>
	<path fill="#414042" d="M391.968,421.811c-0.257,0.259-0.545,0.488-0.866,0.689s-0.659,0.369-1.015,0.504
		c-0.356,0.134-0.724,0.237-1.103,0.31s-0.75,0.108-1.111,0.108c-0.84,0-1.619-0.135-2.336-0.402
		c-0.717-0.269-1.342-0.636-1.872-1.101c-0.531-0.464-0.945-1.009-1.243-1.634c-0.297-0.624-0.446-1.293-0.446-2.006
		c0-0.712,0.151-1.381,0.455-2.005c0.303-0.625,0.718-1.17,1.243-1.635c0.525-0.464,1.146-0.831,1.863-1.1
		c0.717-0.268,1.496-0.402,2.336-0.402c0.781,0,1.516,0.137,2.205,0.41c0.688,0.274,1.318,0.664,1.89,1.17l-0.368,0.31
		c-0.49-0.465-1.059-0.831-1.706-1.1c-0.647-0.269-1.321-0.403-2.021-0.403c-0.758,0-1.467,0.13-2.126,0.388
		c-0.659,0.258-1.228,0.604-1.706,1.038c-0.479,0.434-0.854,0.939-1.128,1.518c-0.274,0.578-0.411,1.183-0.411,1.812
		c0,0.63,0.137,1.231,0.411,1.805c0.274,0.573,0.65,1.079,1.128,1.518c0.478,0.439,1.044,0.788,1.697,1.046s1.365,0.387,2.135,0.387
		c0.326,0,0.667-0.038,1.023-0.116c0.355-0.077,0.7-0.183,1.032-0.317c0.333-0.134,0.645-0.296,0.936-0.487s0.537-0.4,0.735-0.628
		L391.968,421.811z"/>
	<path fill="#414042" d="M402.588,414.438l-0.367,0.341c-0.175-0.176-0.391-0.341-0.647-0.495c-0.257-0.155-0.528-0.289-0.813-0.403
		c-0.286-0.113-0.583-0.201-0.893-0.263c-0.309-0.063-0.61-0.094-0.901-0.094c-0.444,0-0.928,0.083-1.453,0.248
		s-1.015,0.405-1.47,0.721c-0.455,0.314-0.837,0.707-1.146,1.177s-0.463,1.015-0.463,1.634l-0.018,5.886h-0.525v-9.804h0.507v2.168
		c0.256-0.423,0.565-0.787,0.927-1.092c0.361-0.305,0.75-0.555,1.164-0.751s0.834-0.341,1.26-0.434s0.831-0.14,1.216-0.14
		c0.77,0,1.455,0.121,2.056,0.364C401.623,413.744,402.145,414.057,402.588,414.438z"/>
	<path fill="#414042" d="M414.906,418.279c0,0.713-0.152,1.382-0.456,2.006c-0.304,0.625-0.718,1.17-1.244,1.634
		c-0.526,0.465-1.139,0.832-1.84,1.101c-0.701,0.268-1.455,0.402-2.261,0.402s-1.563-0.135-2.269-0.402
		c-0.707-0.269-1.323-0.636-1.849-1.101c-0.526-0.464-0.94-1.009-1.244-1.634c-0.304-0.624-0.456-1.293-0.456-2.006
		c0-0.712,0.151-1.381,0.456-2.005c0.304-0.625,0.718-1.17,1.244-1.635c0.525-0.464,1.142-0.831,1.849-1.1
		c0.707-0.268,1.463-0.402,2.269-0.402s1.56,0.135,2.261,0.402c0.701,0.269,1.314,0.636,1.84,1.1c0.526,0.465,0.94,1.01,1.244,1.635
		C414.754,416.898,414.906,417.567,414.906,418.279z M414.381,418.279c0-0.629-0.14-1.233-0.419-1.812
		c-0.28-0.578-0.658-1.084-1.136-1.518c-0.477-0.434-1.036-0.78-1.677-1.038s-1.322-0.388-2.044-0.388
		c-0.722,0-1.406,0.13-2.052,0.388c-0.646,0.258-1.208,0.604-1.686,1.038c-0.477,0.434-0.856,0.939-1.135,1.518
		s-0.419,1.183-0.419,1.812c0,0.63,0.14,1.231,0.419,1.805s0.658,1.079,1.135,1.518c0.478,0.439,1.037,0.788,1.677,1.046
		s1.328,0.387,2.061,0.387c0.722,0,1.403-0.129,2.044-0.387s1.2-0.606,1.677-1.046c0.478-0.438,0.856-0.944,1.136-1.518
		C414.241,419.511,414.381,418.909,414.381,418.279z"/>
	<path fill="#414042" d="M428.256,418.265v0.186h-11.093c0.046,0.619,0.212,1.208,0.499,1.766c0.286,0.558,0.665,1.045,1.137,1.464
		c0.473,0.418,1.021,0.748,1.645,0.991c0.624,0.242,1.297,0.363,2.021,0.363c0.63,0,1.225-0.098,1.785-0.294
		c0.56-0.196,1.085-0.47,1.575-0.821l0.35,0.311c-0.525,0.382-1.105,0.676-1.741,0.883c-0.636,0.206-1.292,0.31-1.969,0.31
		c-0.805,0-1.56-0.137-2.266-0.41c-0.706-0.273-1.321-0.644-1.846-1.107c-0.525-0.465-0.942-1.01-1.251-1.635
		c-0.309-0.624-0.463-1.287-0.463-1.99c0-0.712,0.151-1.381,0.456-2.005c0.304-0.625,0.718-1.17,1.244-1.635
		c0.525-0.464,1.142-0.831,1.849-1.1c0.707-0.268,1.463-0.402,2.269-0.402s1.56,0.137,2.261,0.41
		c0.701,0.274,1.314,0.646,1.84,1.115s0.94,1.015,1.244,1.634C428.104,416.917,428.256,417.572,428.256,418.265z M427.731,418.063
		c-0.046-0.617-0.212-1.201-0.498-1.751c-0.286-0.551-0.664-1.032-1.135-1.443c-0.472-0.412-1.02-0.738-1.643-0.98
		s-1.29-0.363-2-0.363c-0.722,0-1.395,0.124-2.018,0.371s-1.173,0.579-1.65,0.995c-0.478,0.417-0.859,0.9-1.145,1.451
		s-0.445,1.124-0.48,1.721H427.731z"/>
	<path fill="#414042" d="M436.146,422.539c-0.315,0.278-0.65,0.501-1.006,0.666c-0.356,0.165-0.826,0.248-1.409,0.248
		c-0.42,0-0.813-0.07-1.181-0.209c-0.367-0.14-0.685-0.326-0.954-0.558c-0.268-0.232-0.481-0.506-0.639-0.821
		c-0.157-0.314-0.236-0.643-0.236-0.983v-10.548h-0.998v-0.387h1.522v10.903c0,0.269,0.058,0.532,0.175,0.79s0.283,0.49,0.499,0.697
		c0.216,0.206,0.475,0.371,0.779,0.495c0.303,0.124,0.647,0.187,1.032,0.187c0.49,0,0.901-0.078,1.233-0.232
		c0.333-0.155,0.604-0.341,0.814-0.558L436.146,422.539z"/>
	<path fill="#414042" d="M448.29,418.265v0.186h-11.093c0.046,0.619,0.212,1.208,0.499,1.766c0.286,0.558,0.665,1.045,1.137,1.464
		c0.473,0.418,1.021,0.748,1.645,0.991c0.624,0.242,1.297,0.363,2.021,0.363c0.63,0,1.225-0.098,1.785-0.294
		c0.56-0.196,1.085-0.47,1.575-0.821l0.35,0.311c-0.525,0.382-1.105,0.676-1.741,0.883c-0.636,0.206-1.292,0.31-1.969,0.31
		c-0.805,0-1.56-0.137-2.266-0.41c-0.706-0.273-1.321-0.644-1.846-1.107c-0.525-0.465-0.942-1.01-1.251-1.635
		c-0.309-0.624-0.463-1.287-0.463-1.99c0-0.712,0.151-1.381,0.456-2.005c0.304-0.625,0.718-1.17,1.244-1.635
		c0.525-0.464,1.142-0.831,1.849-1.1c0.707-0.268,1.463-0.402,2.269-0.402s1.56,0.137,2.261,0.41
		c0.701,0.274,1.314,0.646,1.84,1.115s0.94,1.015,1.244,1.634C448.138,416.917,448.29,417.572,448.29,418.265z M447.765,418.063
		c-0.046-0.617-0.212-1.201-0.498-1.751c-0.286-0.551-0.664-1.032-1.135-1.443c-0.472-0.412-1.02-0.738-1.643-0.98
		s-1.29-0.363-2-0.363c-0.722,0-1.395,0.124-2.018,0.371s-1.173,0.579-1.65,0.995c-0.478,0.417-0.859,0.9-1.145,1.451
		s-0.445,1.124-0.48,1.721H447.765z"/>
	<path fill="#414042" d="M460.012,421.811c-0.256,0.259-0.545,0.488-0.865,0.689c-0.321,0.201-0.66,0.369-1.016,0.504
		c-0.355,0.134-0.723,0.237-1.102,0.31s-0.75,0.108-1.111,0.108c-0.84,0-1.619-0.135-2.336-0.402
		c-0.717-0.269-1.342-0.636-1.872-1.101c-0.531-0.464-0.945-1.009-1.243-1.634c-0.297-0.624-0.446-1.293-0.446-2.006
		c0-0.712,0.151-1.381,0.455-2.005c0.303-0.625,0.717-1.17,1.243-1.635c0.525-0.464,1.146-0.831,1.863-1.1
		c0.717-0.268,1.496-0.402,2.336-0.402c0.781,0,1.516,0.137,2.205,0.41c0.688,0.274,1.317,0.664,1.889,1.17l-0.367,0.31
		c-0.49-0.465-1.059-0.831-1.705-1.1c-0.648-0.269-1.322-0.403-2.021-0.403c-0.758,0-1.467,0.13-2.126,0.388
		s-1.228,0.604-1.706,1.038s-0.854,0.939-1.128,1.518c-0.274,0.578-0.411,1.183-0.411,1.812c0,0.63,0.137,1.231,0.411,1.805
		c0.274,0.573,0.65,1.079,1.128,1.518c0.479,0.439,1.044,0.788,1.697,1.046s1.365,0.387,2.135,0.387
		c0.326,0,0.668-0.038,1.023-0.116c0.355-0.077,0.699-0.183,1.032-0.317c0.333-0.134,0.645-0.296,0.937-0.487
		c0.291-0.191,0.536-0.4,0.734-0.628L460.012,421.811z"/>
	<path fill="#414042" d="M468.586,422.384c-0.28,0.269-0.65,0.509-1.111,0.721c-0.461,0.211-0.953,0.317-1.479,0.317
		c-0.467,0-0.916-0.077-1.348-0.232s-0.813-0.372-1.146-0.65c-0.332-0.279-0.601-0.606-0.805-0.983s-0.307-0.787-0.307-1.231v-6.521
		h-1.242v-0.341h1.242v-1.843l0.525-0.449v2.292h4.514v0.341h-4.514v6.458c0,0.403,0.084,0.772,0.254,1.107
		c0.169,0.336,0.394,0.628,0.673,0.876c0.28,0.247,0.606,0.441,0.98,0.58c0.373,0.14,0.764,0.209,1.172,0.209
		c0.21,0,0.429-0.025,0.656-0.077s0.44-0.121,0.639-0.209s0.385-0.188,0.56-0.302s0.315-0.228,0.42-0.341L468.586,422.384z"/>
	<path fill="#414042" d="M478.664,414.438l-0.367,0.341c-0.175-0.176-0.391-0.341-0.647-0.495c-0.257-0.155-0.528-0.289-0.813-0.403
		c-0.286-0.113-0.584-0.201-0.893-0.263c-0.31-0.063-0.609-0.094-0.901-0.094c-0.443,0-0.927,0.083-1.452,0.248
		c-0.524,0.165-1.015,0.405-1.47,0.721c-0.455,0.314-0.837,0.707-1.146,1.177c-0.31,0.47-0.464,1.015-0.464,1.634l-0.018,5.886
		h-0.525v-9.804h0.508v2.168c0.257-0.423,0.565-0.787,0.928-1.092c0.361-0.305,0.749-0.555,1.163-0.751s0.834-0.341,1.26-0.434
		s0.831-0.14,1.216-0.14c0.771,0,1.455,0.121,2.057,0.364C477.699,413.744,478.221,414.057,478.664,414.438z"/>
	<path fill="#414042" d="M490.981,418.279c0,0.713-0.152,1.382-0.456,2.006c-0.304,0.625-0.719,1.17-1.244,1.634
		c-0.525,0.465-1.139,0.832-1.84,1.101c-0.701,0.268-1.454,0.402-2.261,0.402c-0.806,0-1.563-0.135-2.27-0.402
		c-0.706-0.269-1.322-0.636-1.849-1.101c-0.525-0.464-0.94-1.009-1.244-1.634c-0.304-0.624-0.455-1.293-0.455-2.006
		c0-0.712,0.151-1.381,0.455-2.005c0.304-0.625,0.719-1.17,1.244-1.635c0.526-0.464,1.143-0.831,1.849-1.1
		c0.707-0.268,1.464-0.402,2.27-0.402c0.807,0,1.56,0.135,2.261,0.402c0.701,0.269,1.314,0.636,1.84,1.1
		c0.525,0.465,0.94,1.01,1.244,1.635C490.829,416.898,490.981,417.567,490.981,418.279z M490.456,418.279
		c0-0.629-0.14-1.233-0.419-1.812s-0.658-1.084-1.136-1.518s-1.036-0.78-1.677-1.038s-1.322-0.388-2.044-0.388
		s-1.406,0.13-2.053,0.388c-0.646,0.258-1.208,0.604-1.686,1.038s-0.855,0.939-1.135,1.518c-0.28,0.578-0.42,1.183-0.42,1.812
		c0,0.63,0.14,1.231,0.42,1.805c0.279,0.573,0.657,1.079,1.135,1.518c0.478,0.439,1.036,0.788,1.677,1.046s1.328,0.387,2.062,0.387
		c0.722,0,1.403-0.129,2.044-0.387s1.199-0.606,1.677-1.046c0.478-0.438,0.856-0.944,1.136-1.518S490.456,418.909,490.456,418.279z"
		/>
	<path fill="#414042" d="M503.352,417.552v5.638h-0.524v-5.591c0-0.63-0.12-1.195-0.358-1.696c-0.239-0.501-0.563-0.927-0.972-1.277
		c-0.408-0.352-0.884-0.622-1.426-0.813s-1.117-0.287-1.724-0.287c-0.595,0-1.166,0.106-1.715,0.318
		c-0.548,0.211-1.035,0.495-1.461,0.852s-0.767,0.77-1.023,1.239s-0.385,0.968-0.385,1.494v5.762h-0.525v-9.804h0.525v2.122
		c0.233-0.372,0.516-0.705,0.849-0.999c0.332-0.295,0.7-0.543,1.103-0.744s0.828-0.355,1.277-0.464
		c0.448-0.109,0.906-0.163,1.373-0.163c0.711,0,1.374,0.108,1.986,0.325s1.14,0.521,1.583,0.914s0.79,0.857,1.041,1.394
		C503.227,416.308,503.352,416.901,503.352,417.552z"/>
	<path fill="#414042" d="M506.869,423.189h-0.525v-9.401h-0.822v-0.402h1.348V423.189z M506.956,410.412
		c0,0.165-0.064,0.305-0.192,0.418c-0.129,0.113-0.286,0.17-0.473,0.17s-0.344-0.057-0.472-0.17
		c-0.129-0.113-0.193-0.253-0.193-0.418c0-0.176,0.064-0.32,0.193-0.434c0.128-0.114,0.285-0.171,0.472-0.171
		s0.344,0.057,0.473,0.171C506.892,410.092,506.956,410.236,506.956,410.412z"/>
	<path fill="#414042" d="M519.309,421.811c-0.256,0.259-0.545,0.488-0.865,0.689c-0.321,0.201-0.659,0.369-1.016,0.504
		c-0.355,0.134-0.723,0.237-1.102,0.31c-0.38,0.072-0.75,0.108-1.111,0.108c-0.84,0-1.618-0.135-2.336-0.402
		c-0.718-0.269-1.342-0.636-1.872-1.101c-0.531-0.464-0.945-1.009-1.242-1.634c-0.298-0.624-0.446-1.293-0.446-2.006
		c0-0.712,0.151-1.381,0.455-2.005c0.303-0.625,0.717-1.17,1.242-1.635c0.524-0.464,1.146-0.831,1.863-1.1
		c0.718-0.268,1.496-0.402,2.336-0.402c0.781,0,1.516,0.137,2.204,0.41c0.688,0.274,1.318,0.664,1.89,1.17l-0.367,0.31
		c-0.489-0.465-1.059-0.831-1.706-1.1s-1.32-0.403-2.021-0.403c-0.759,0-1.467,0.13-2.126,0.388s-1.228,0.604-1.706,1.038
		s-0.854,0.939-1.129,1.518c-0.273,0.578-0.411,1.183-0.411,1.812c0,0.63,0.138,1.231,0.411,1.805
		c0.274,0.573,0.65,1.079,1.129,1.518c0.479,0.439,1.044,0.788,1.697,1.046s1.365,0.387,2.135,0.387
		c0.326,0,0.668-0.038,1.023-0.116c0.355-0.077,0.7-0.183,1.032-0.317c0.333-0.134,0.645-0.296,0.937-0.487
		c0.291-0.191,0.536-0.4,0.734-0.628L519.309,421.811z"/>
	<path fill="#414042" d="M538.572,423.174h-0.508v-2.741c-0.303,0.547-0.662,1.012-1.076,1.394c-0.414,0.383-0.854,0.692-1.32,0.93
		c-0.467,0.237-0.945,0.408-1.435,0.511c-0.49,0.104-0.963,0.155-1.418,0.155c-0.805,0-1.56-0.135-2.266-0.402
		c-0.706-0.269-1.321-0.636-1.846-1.101c-0.525-0.464-0.939-1.009-1.242-1.634c-0.304-0.624-0.455-1.293-0.455-2.006
		c0-0.712,0.151-1.381,0.455-2.005c0.303-0.625,0.717-1.17,1.242-1.635c0.524-0.464,1.14-0.831,1.846-1.1
		c0.706-0.268,1.461-0.402,2.266-0.402c0.467,0,0.951,0.057,1.452,0.17c0.502,0.114,0.986,0.29,1.453,0.527
		c0.466,0.237,0.903,0.544,1.312,0.921s0.753,0.829,1.032,1.355v-2.726h0.508V423.174z M538.082,418.279
		c0-0.629-0.137-1.233-0.41-1.812s-0.649-1.084-1.127-1.518s-1.036-0.78-1.677-1.038s-1.322-0.388-2.044-0.388
		s-1.406,0.13-2.053,0.388c-0.646,0.258-1.208,0.604-1.686,1.038s-0.855,0.939-1.135,1.518c-0.28,0.578-0.42,1.183-0.42,1.812
		c0,0.63,0.14,1.231,0.42,1.805c0.279,0.573,0.657,1.079,1.135,1.518c0.478,0.439,1.036,0.788,1.677,1.046s1.328,0.387,2.062,0.387
		s1.418-0.129,2.053-0.387s1.19-0.606,1.668-1.046c0.478-0.438,0.854-0.944,1.127-1.518S538.082,418.909,538.082,418.279z"/>
	<path fill="#414042" d="M550.067,414.438l-0.367,0.341c-0.175-0.176-0.391-0.341-0.647-0.495c-0.257-0.155-0.528-0.289-0.813-0.403
		c-0.286-0.113-0.584-0.201-0.893-0.263c-0.31-0.063-0.609-0.094-0.901-0.094c-0.443,0-0.927,0.083-1.452,0.248
		c-0.524,0.165-1.015,0.405-1.47,0.721c-0.455,0.314-0.837,0.707-1.146,1.177c-0.31,0.47-0.464,1.015-0.464,1.634l-0.018,5.886
		h-0.525v-9.804h0.508v2.168c0.257-0.423,0.565-0.787,0.928-1.092c0.361-0.305,0.749-0.555,1.163-0.751s0.834-0.341,1.26-0.434
		s0.831-0.14,1.216-0.14c0.771,0,1.455,0.121,2.057,0.364C549.103,413.744,549.624,414.057,550.067,414.438z"/>
	<path fill="#414042" d="M560.758,421.811c-0.256,0.259-0.545,0.488-0.865,0.689c-0.321,0.201-0.659,0.369-1.016,0.504
		c-0.355,0.134-0.723,0.237-1.102,0.31c-0.38,0.072-0.75,0.108-1.111,0.108c-0.84,0-1.618-0.135-2.336-0.402
		c-0.718-0.269-1.342-0.636-1.872-1.101c-0.531-0.464-0.945-1.009-1.242-1.634c-0.298-0.624-0.446-1.293-0.446-2.006
		c0-0.712,0.151-1.381,0.455-2.005c0.303-0.625,0.717-1.17,1.242-1.635c0.524-0.464,1.146-0.831,1.863-1.1
		c0.718-0.268,1.496-0.402,2.336-0.402c0.781,0,1.516,0.137,2.204,0.41c0.688,0.274,1.318,0.664,1.89,1.17l-0.367,0.31
		c-0.489-0.465-1.059-0.831-1.706-1.1s-1.32-0.403-2.021-0.403c-0.759,0-1.467,0.13-2.126,0.388s-1.228,0.604-1.706,1.038
		s-0.854,0.939-1.129,1.518c-0.273,0.578-0.411,1.183-0.411,1.812c0,0.63,0.138,1.231,0.411,1.805
		c0.274,0.573,0.65,1.079,1.129,1.518c0.479,0.439,1.044,0.788,1.697,1.046s1.365,0.387,2.135,0.387
		c0.326,0,0.668-0.038,1.023-0.116c0.355-0.077,0.7-0.183,1.032-0.317c0.333-0.134,0.645-0.296,0.937-0.487
		c0.291-0.191,0.536-0.4,0.734-0.628L560.758,421.811z"/>
	<path fill="#414042" d="M572.796,417.443v5.746h-0.524v-5.685c0-0.567-0.117-1.092-0.35-1.571c-0.234-0.48-0.552-0.898-0.954-1.255
		s-0.878-0.635-1.426-0.836c-0.549-0.202-1.138-0.303-1.768-0.303c-0.595,0-1.166,0.101-1.715,0.303
		c-0.548,0.201-1.032,0.478-1.452,0.828c-0.42,0.352-0.755,0.767-1.006,1.247c-0.251,0.479-0.376,1.004-0.376,1.572l-0.018,5.699
		h-0.525v-13.242h0.525v5.514c0.723-0.847,1.452-1.442,2.187-1.789c0.735-0.346,1.534-0.519,2.397-0.519
		c0.735,0,1.411,0.111,2.029,0.333s1.146,0.526,1.584,0.914c0.438,0.387,0.778,0.841,1.023,1.362S572.796,416.845,572.796,417.443z"
		/>
	<path fill="#414042" d="M576.313,423.189h-0.525v-9.401h-0.822v-0.402h1.348V423.189z M576.399,410.412
		c0,0.165-0.064,0.305-0.192,0.418c-0.129,0.113-0.286,0.17-0.473,0.17s-0.344-0.057-0.472-0.17
		c-0.129-0.113-0.193-0.253-0.193-0.418c0-0.176,0.064-0.32,0.193-0.434c0.128-0.114,0.285-0.171,0.472-0.171
		s0.344,0.057,0.473,0.171C576.335,410.092,576.399,410.236,576.399,410.412z"/>
	<path fill="#414042" d="M585.936,422.384c-0.28,0.269-0.65,0.509-1.111,0.721c-0.461,0.211-0.953,0.317-1.479,0.317
		c-0.467,0-0.916-0.077-1.348-0.232s-0.813-0.372-1.146-0.65c-0.332-0.279-0.601-0.606-0.805-0.983s-0.307-0.787-0.307-1.231v-6.521
		h-1.242v-0.341h1.242v-1.843l0.525-0.449v2.292h4.514v0.341h-4.514v6.458c0,0.403,0.084,0.772,0.254,1.107
		c0.169,0.336,0.394,0.628,0.673,0.876c0.28,0.247,0.606,0.441,0.98,0.58c0.373,0.14,0.764,0.209,1.172,0.209
		c0.21,0,0.429-0.025,0.656-0.077s0.44-0.121,0.639-0.209s0.385-0.188,0.56-0.302s0.315-0.228,0.42-0.341L585.936,422.384z"/>
	<path fill="#414042" d="M598.411,418.265v0.186h-11.094c0.047,0.619,0.213,1.208,0.499,1.766s0.665,1.045,1.138,1.464
		c0.472,0.418,1.021,0.748,1.645,0.991c0.624,0.242,1.297,0.363,2.021,0.363c0.63,0,1.225-0.098,1.785-0.294
		c0.56-0.196,1.085-0.47,1.574-0.821l0.351,0.311c-0.525,0.382-1.105,0.676-1.741,0.883c-0.636,0.206-1.292,0.31-1.969,0.31
		c-0.805,0-1.56-0.137-2.266-0.41s-1.321-0.644-1.846-1.107c-0.525-0.465-0.942-1.01-1.251-1.635
		c-0.31-0.624-0.464-1.287-0.464-1.99c0-0.712,0.151-1.381,0.455-2.005c0.304-0.625,0.719-1.17,1.244-1.635
		c0.526-0.464,1.143-0.831,1.849-1.1c0.707-0.268,1.464-0.402,2.27-0.402c0.807,0,1.56,0.137,2.261,0.41
		c0.701,0.274,1.314,0.646,1.84,1.115s0.94,1.015,1.244,1.634C598.259,416.917,598.411,417.572,598.411,418.265z M597.886,418.063
		c-0.047-0.617-0.213-1.201-0.498-1.751c-0.285-0.551-0.663-1.032-1.135-1.443c-0.472-0.412-1.02-0.738-1.643-0.98
		s-1.289-0.363-2-0.363c-0.722,0-1.395,0.124-2.018,0.371s-1.173,0.579-1.65,0.995c-0.478,0.417-0.859,0.9-1.145,1.451
		s-0.445,1.124-0.48,1.721H597.886z"/>
	<path fill="#414042" d="M610.134,421.811c-0.256,0.259-0.545,0.488-0.865,0.689c-0.321,0.201-0.659,0.369-1.016,0.504
		c-0.355,0.134-0.723,0.237-1.102,0.31c-0.38,0.072-0.75,0.108-1.111,0.108c-0.84,0-1.618-0.135-2.336-0.402
		c-0.718-0.269-1.342-0.636-1.872-1.101c-0.531-0.464-0.945-1.009-1.242-1.634c-0.298-0.624-0.446-1.293-0.446-2.006
		c0-0.712,0.151-1.381,0.455-2.005c0.303-0.625,0.717-1.17,1.242-1.635c0.524-0.464,1.146-0.831,1.863-1.1
		c0.718-0.268,1.496-0.402,2.336-0.402c0.781,0,1.516,0.137,2.204,0.41c0.688,0.274,1.318,0.664,1.89,1.17l-0.367,0.31
		c-0.489-0.465-1.059-0.831-1.706-1.1s-1.32-0.403-2.021-0.403c-0.759,0-1.467,0.13-2.126,0.388s-1.228,0.604-1.706,1.038
		s-0.854,0.939-1.129,1.518c-0.273,0.578-0.411,1.183-0.411,1.812c0,0.63,0.138,1.231,0.411,1.805
		c0.274,0.573,0.65,1.079,1.129,1.518c0.479,0.439,1.044,0.788,1.697,1.046s1.365,0.387,2.135,0.387
		c0.326,0,0.668-0.038,1.023-0.116c0.355-0.077,0.7-0.183,1.032-0.317c0.333-0.134,0.645-0.296,0.937-0.487
		c0.291-0.191,0.536-0.4,0.734-0.628L610.134,421.811z"/>
	<path fill="#414042" d="M618.707,422.384c-0.28,0.269-0.65,0.509-1.111,0.721c-0.461,0.211-0.953,0.317-1.479,0.317
		c-0.467,0-0.916-0.077-1.348-0.232s-0.813-0.372-1.146-0.65c-0.332-0.279-0.601-0.606-0.805-0.983s-0.307-0.787-0.307-1.231v-6.521
		h-1.242v-0.341h1.242v-1.843l0.525-0.449v2.292h4.514v0.341h-4.514v6.458c0,0.403,0.084,0.772,0.254,1.107
		c0.169,0.336,0.394,0.628,0.673,0.876c0.28,0.247,0.606,0.441,0.98,0.58c0.373,0.14,0.764,0.209,1.172,0.209
		c0.21,0,0.429-0.025,0.656-0.077s0.44-0.121,0.639-0.209s0.385-0.188,0.56-0.302s0.315-0.228,0.42-0.341L618.707,422.384z"/>
	<path fill="#414042" d="M630.115,423.174h-0.525l0.018-2.106c-0.245,0.372-0.536,0.702-0.875,0.991
		c-0.338,0.289-0.708,0.534-1.11,0.736c-0.402,0.201-0.822,0.355-1.26,0.464s-0.872,0.163-1.304,0.163
		c-0.735,0-1.412-0.104-2.03-0.31c-0.618-0.207-1.151-0.504-1.601-0.891c-0.449-0.388-0.799-0.857-1.05-1.409
		c-0.251-0.553-0.376-1.17-0.376-1.852v-5.591h0.524v5.591c0,0.63,0.129,1.195,0.385,1.696c0.257,0.501,0.596,0.927,1.016,1.277
		c0.42,0.352,0.9,0.622,1.443,0.813c0.542,0.191,1.104,0.286,1.688,0.286c0.571,0,1.131-0.101,1.68-0.302
		c0.548-0.201,1.032-0.478,1.452-0.828c0.42-0.352,0.758-0.762,1.015-1.231s0.385-0.979,0.385-1.525v-5.777h0.525V423.174z"/>
	<path fill="#414042" d="M641.61,414.438l-0.367,0.341c-0.175-0.176-0.391-0.341-0.647-0.495c-0.257-0.155-0.528-0.289-0.813-0.403
		c-0.286-0.113-0.584-0.201-0.893-0.263c-0.31-0.063-0.609-0.094-0.901-0.094c-0.443,0-0.927,0.083-1.452,0.248
		c-0.524,0.165-1.015,0.405-1.47,0.721c-0.455,0.314-0.837,0.707-1.146,1.177c-0.31,0.47-0.464,1.015-0.464,1.634l-0.018,5.886
		h-0.525v-9.804h0.508v2.168c0.257-0.423,0.565-0.787,0.928-1.092c0.361-0.305,0.749-0.555,1.163-0.751s0.834-0.341,1.26-0.434
		s0.831-0.14,1.216-0.14c0.771,0,1.455,0.121,2.057,0.364C640.646,413.744,641.167,414.057,641.61,414.438z"/>
	<path fill="#414042" d="M653.929,418.265v0.186h-11.094c0.047,0.619,0.213,1.208,0.499,1.766s0.665,1.045,1.138,1.464
		c0.472,0.418,1.021,0.748,1.645,0.991c0.624,0.242,1.297,0.363,2.021,0.363c0.63,0,1.225-0.098,1.785-0.294
		c0.56-0.196,1.085-0.47,1.574-0.821l0.351,0.311c-0.525,0.382-1.105,0.676-1.741,0.883c-0.636,0.206-1.292,0.31-1.969,0.31
		c-0.805,0-1.56-0.137-2.266-0.41s-1.321-0.644-1.846-1.107c-0.525-0.465-0.942-1.01-1.251-1.635
		c-0.31-0.624-0.464-1.287-0.464-1.99c0-0.712,0.151-1.381,0.455-2.005c0.304-0.625,0.719-1.17,1.244-1.635
		c0.526-0.464,1.143-0.831,1.849-1.1c0.707-0.268,1.464-0.402,2.27-0.402c0.807,0,1.56,0.137,2.261,0.41
		c0.701,0.274,1.314,0.646,1.84,1.115s0.94,1.015,1.244,1.634C653.776,416.917,653.929,417.572,653.929,418.265z M653.403,418.063
		c-0.047-0.617-0.213-1.201-0.498-1.751c-0.285-0.551-0.663-1.032-1.135-1.443c-0.472-0.412-1.02-0.738-1.643-0.98
		s-1.289-0.363-2-0.363c-0.722,0-1.395,0.124-2.018,0.371s-1.173,0.579-1.65,0.995c-0.478,0.417-0.859,0.9-1.145,1.451
		s-0.445,1.124-0.48,1.721H653.403z"/>
	<path fill="#414042" d="M671.949,421.811c-0.256,0.259-0.545,0.488-0.865,0.689c-0.321,0.201-0.659,0.369-1.016,0.504
		c-0.355,0.134-0.723,0.237-1.102,0.31c-0.38,0.072-0.75,0.108-1.111,0.108c-0.84,0-1.618-0.135-2.336-0.402
		c-0.718-0.269-1.342-0.636-1.872-1.101c-0.531-0.464-0.945-1.009-1.242-1.634c-0.298-0.624-0.446-1.293-0.446-2.006
		c0-0.712,0.151-1.381,0.455-2.005c0.303-0.625,0.717-1.17,1.242-1.635c0.524-0.464,1.146-0.831,1.863-1.1
		c0.718-0.268,1.496-0.402,2.336-0.402c0.781,0,1.516,0.137,2.204,0.41c0.688,0.274,1.318,0.664,1.89,1.17l-0.367,0.31
		c-0.489-0.465-1.059-0.831-1.706-1.1s-1.32-0.403-2.021-0.403c-0.759,0-1.467,0.13-2.126,0.388s-1.228,0.604-1.706,1.038
		s-0.854,0.939-1.129,1.518c-0.273,0.578-0.411,1.183-0.411,1.812c0,0.63,0.138,1.231,0.411,1.805
		c0.274,0.573,0.65,1.079,1.129,1.518c0.479,0.439,1.044,0.788,1.697,1.046s1.365,0.387,2.135,0.387
		c0.326,0,0.668-0.038,1.023-0.116c0.355-0.077,0.7-0.183,1.032-0.317c0.333-0.134,0.645-0.296,0.937-0.487
		c0.291-0.191,0.536-0.4,0.734-0.628L671.949,421.811z"/>
	<path fill="#414042" d="M684.968,418.279c0,0.713-0.152,1.382-0.456,2.006c-0.304,0.625-0.719,1.17-1.244,1.634
		c-0.525,0.465-1.139,0.832-1.84,1.101c-0.701,0.268-1.454,0.402-2.261,0.402c-0.806,0-1.563-0.135-2.27-0.402
		c-0.706-0.269-1.322-0.636-1.849-1.101c-0.525-0.464-0.94-1.009-1.244-1.634c-0.304-0.624-0.455-1.293-0.455-2.006
		c0-0.712,0.151-1.381,0.455-2.005c0.304-0.625,0.719-1.17,1.244-1.635c0.526-0.464,1.143-0.831,1.849-1.1
		c0.707-0.268,1.464-0.402,2.27-0.402c0.807,0,1.56,0.135,2.261,0.402c0.701,0.269,1.314,0.636,1.84,1.1
		c0.525,0.465,0.94,1.01,1.244,1.635C684.815,416.898,684.968,417.567,684.968,418.279z M684.442,418.279
		c0-0.629-0.14-1.233-0.419-1.812s-0.658-1.084-1.136-1.518s-1.036-0.78-1.677-1.038s-1.322-0.388-2.044-0.388
		s-1.406,0.13-2.053,0.388c-0.646,0.258-1.208,0.604-1.686,1.038s-0.855,0.939-1.135,1.518c-0.28,0.578-0.42,1.183-0.42,1.812
		c0,0.63,0.14,1.231,0.42,1.805c0.279,0.573,0.657,1.079,1.135,1.518c0.478,0.439,1.036,0.788,1.677,1.046s1.328,0.387,2.062,0.387
		c0.722,0,1.403-0.129,2.044-0.387s1.199-0.606,1.677-1.046c0.478-0.438,0.856-0.944,1.136-1.518S684.442,418.909,684.442,418.279z"
		/>
	<path fill="#414042" d="M705.386,417.505v5.685h-0.524v-5.591c0-0.589-0.114-1.131-0.341-1.627
		c-0.228-0.495-0.529-0.927-0.908-1.293c-0.378-0.366-0.817-0.65-1.318-0.852c-0.5-0.201-1.029-0.303-1.589-0.303
		c-0.559,0-1.085,0.102-1.58,0.303c-0.494,0.201-0.931,0.479-1.31,0.836c-0.378,0.356-0.678,0.777-0.898,1.263
		c-0.222,0.485-0.332,1.012-0.332,1.579v5.685h-0.525v-5.591c0-0.589-0.11-1.131-0.332-1.627c-0.222-0.495-0.524-0.927-0.91-1.293
		c-0.385-0.366-0.828-0.65-1.329-0.852c-0.502-0.201-1.032-0.303-1.593-0.303c-0.571,0-1.108,0.102-1.609,0.303
		c-0.502,0.201-0.939,0.478-1.313,0.828c-0.373,0.352-0.668,0.77-0.884,1.255s-0.323,1.012-0.323,1.58l-0.018,5.699h-0.525v-9.804
		h0.525v2.23c0.21-0.444,0.467-0.823,0.771-1.139s0.637-0.57,0.998-0.767c0.362-0.196,0.747-0.341,1.156-0.434
		c0.408-0.093,0.817-0.14,1.226-0.14c0.421,0,0.844,0.054,1.27,0.163c0.427,0.108,0.835,0.281,1.227,0.519
		c0.391,0.237,0.75,0.539,1.077,0.906c0.327,0.366,0.607,0.813,0.841,1.339c0.408-1.001,0.99-1.739,1.748-2.214
		c0.757-0.476,1.643-0.713,2.657-0.713c0.629,0,1.227,0.111,1.792,0.333c0.564,0.222,1.061,0.526,1.485,0.914
		c0.426,0.387,0.764,0.847,1.014,1.378C705.261,416.295,705.386,416.876,705.386,417.505z"/>
	<path fill="#414042" d="M719.681,418.218c0,0.691-0.151,1.353-0.455,1.982s-0.719,1.183-1.244,1.657
		c-0.526,0.476-1.143,0.854-1.85,1.139c-0.707,0.283-1.463,0.426-2.27,0.426c-0.455,0-0.926-0.052-1.41-0.155
		c-0.485-0.103-0.958-0.271-1.42-0.503c-0.461-0.232-0.902-0.534-1.323-0.906c-0.42-0.372-0.788-0.831-1.104-1.378v6.133h-0.508
		v-13.227h0.508v2.602c0.374-0.567,0.779-1.037,1.218-1.409s0.885-0.663,1.341-0.875c0.455-0.212,0.914-0.358,1.376-0.441
		c0.461-0.083,0.902-0.124,1.322-0.124c0.807,0,1.563,0.135,2.27,0.402c0.707,0.269,1.323,0.636,1.85,1.1
		c0.525,0.465,0.94,1.005,1.244,1.619S719.681,417.526,719.681,418.218z M719.156,418.279c0-0.619-0.138-1.216-0.411-1.788
		c-0.274-0.573-0.65-1.079-1.129-1.519c-0.479-0.438-1.038-0.789-1.68-1.053s-1.336-0.396-2.082-0.396
		c-0.747,0-1.44,0.132-2.082,0.396s-1.198,0.614-1.671,1.053c-0.473,0.439-0.846,0.945-1.12,1.519
		c-0.274,0.572-0.411,1.169-0.411,1.788c0,0.62,0.137,1.216,0.411,1.789s0.647,1.079,1.12,1.519
		c0.473,0.438,1.029,0.789,1.671,1.053s1.335,0.395,2.082,0.395c0.746,0,1.44-0.131,2.082-0.395s1.201-0.614,1.68-1.053
		c0.479-0.439,0.854-0.945,1.129-1.519C719.019,419.495,719.156,418.899,719.156,418.279z"/>
	<path fill="#414042" d="M732.979,423.174h-0.508v-2.741c-0.303,0.547-0.662,1.012-1.076,1.394c-0.414,0.383-0.854,0.692-1.32,0.93
		c-0.467,0.237-0.945,0.408-1.435,0.511c-0.49,0.104-0.963,0.155-1.418,0.155c-0.805,0-1.56-0.135-2.266-0.402
		c-0.706-0.269-1.321-0.636-1.846-1.101c-0.525-0.464-0.939-1.009-1.242-1.634c-0.304-0.624-0.455-1.293-0.455-2.006
		c0-0.712,0.151-1.381,0.455-2.005c0.303-0.625,0.717-1.17,1.242-1.635c0.524-0.464,1.14-0.831,1.846-1.1
		c0.706-0.268,1.461-0.402,2.266-0.402c0.467,0,0.951,0.057,1.452,0.17c0.502,0.114,0.986,0.29,1.453,0.527
		c0.466,0.237,0.903,0.544,1.312,0.921s0.753,0.829,1.032,1.355v-2.726h0.508V423.174z M732.488,418.279
		c0-0.629-0.137-1.233-0.41-1.812s-0.649-1.084-1.127-1.518s-1.036-0.78-1.677-1.038s-1.322-0.388-2.044-0.388
		s-1.406,0.13-2.053,0.388c-0.646,0.258-1.208,0.604-1.686,1.038s-0.855,0.939-1.135,1.518c-0.28,0.578-0.42,1.183-0.42,1.812
		c0,0.63,0.14,1.231,0.42,1.805c0.279,0.573,0.657,1.079,1.135,1.518c0.478,0.439,1.036,0.788,1.677,1.046s1.328,0.387,2.062,0.387
		s1.418-0.129,2.053-0.387s1.19-0.606,1.668-1.046c0.478-0.438,0.854-0.944,1.127-1.518S732.488,418.909,732.488,418.279z"/>
	<path fill="#414042" d="M745.891,417.552v5.638h-0.524v-5.591c0-0.63-0.12-1.195-0.358-1.696c-0.239-0.501-0.563-0.927-0.972-1.277
		c-0.408-0.352-0.884-0.622-1.426-0.813s-1.117-0.287-1.724-0.287c-0.595,0-1.166,0.106-1.715,0.318
		c-0.548,0.211-1.035,0.495-1.461,0.852s-0.767,0.77-1.023,1.239s-0.385,0.968-0.385,1.494v5.762h-0.525v-9.804h0.525v2.122
		c0.233-0.372,0.516-0.705,0.849-0.999c0.332-0.295,0.7-0.543,1.103-0.744s0.828-0.355,1.277-0.464
		c0.448-0.109,0.906-0.163,1.373-0.163c0.711,0,1.374,0.108,1.986,0.325s1.14,0.521,1.583,0.914s0.79,0.857,1.041,1.394
		C745.766,416.308,745.891,416.901,745.891,417.552z"/>
	<path fill="#414042" d="M758.191,413.37l-7.227,13.258h-0.612l2.1-3.841l-5.074-9.417h0.647l4.689,8.89l4.847-8.89H758.191z"/>
</g>
<rect x="290.778" y="370.449" fill="#FFFFFF" stroke="#FFFFFF" stroke-miterlimit="10" width="20.698" height="1.551"/>
<g>
	<line fill="#FFFFFF" x1="283.194" y1="380.707" x2="290" y2="370.449"/>
	<polygon fill="#FFFFFF" points="283.611,380.983 282.778,380.431 290.313,369.938 290.778,371.5 	"/>
</g>
<line fill="#FFFFFF" stroke="#FFFFFF" stroke-width="2" stroke-miterlimit="10" x1="216.881" y1="361.211" x2="209.063" y2="372.188"/>
<rect x="183.75" y="370.253" fill="#FFFFFF" width="26.25" height="2.435"/>
<g>
</g>
<g>
</g>
<g>
</g>
<g>
</g>
<g>
</g>
<g>
</g>
</svg>
